<?xml version="1.0" encoding="UTF-8" standalone="no"?>
<!DOCTYPE svg PUBLIC "-//W3C//DTD SVG 20010904//EN"
              "http://www.w3.org/TR/2001/REC-SVG-20010904/DTD/svg10.dtd">

<svg xmlns="http://www.w3.org/2000/svg"
     width="2.92644in" height="1.43164in"
     viewBox="0 0 278 136">
  <path id="Selection #1"
        fill="none" stroke="black" stroke-width="1"
        d="M 182.87,8.43
           C 189.22,13.74 187.63,23.81 179.98,26.99
             166.72,32.52 157.40,14.64 170.09,6.85
             174.35,5.64 179.25,5.40 182.87,8.43 Z
           M 212.00,27.59
           C 210.24,28.00 207.74,28.04 206.00,27.59
             204.08,27.05 202.63,26.17 201.22,24.77
             188.43,12.16 210.63,-2.35 218.92,11.04
             220.48,13.57 221.34,17.11 222.00,20.00
             217.97,21.52 218.75,26.09 212.00,27.59 Z
           M 158.56,47.00
           C 159.62,43.74 164.58,37.97 166.87,35.00
             169.71,31.32 172.54,27.46 177.83,29.60
             180.97,30.87 189.97,42.70 193.00,46.00
             195.44,40.73 204.26,27.88 210.96,29.33
             214.25,30.05 216.60,33.49 218.58,36.00
             225.73,45.11 226.00,44.78 226.00,56.00
             226.00,56.00 213.00,42.00 213.00,42.00
             213.05,57.37 221.59,61.15 224.00,74.00
             214.42,73.96 215.47,73.71 209.00,60.00
             209.00,60.00 201.59,73.43 201.59,73.43
             201.59,73.43 194.00,74.00 194.00,74.00
             197.13,63.01 204.89,54.74 205.00,43.00
             205.00,43.00 194.00,57.00 194.00,57.00
             187.77,55.08 183.25,46.92 179.00,42.00
             179.13,55.69 188.24,63.41 191.00,75.00
             191.00,75.00 182.49,72.98 182.49,72.98
             182.49,72.98 175.00,60.00 175.00,60.00
             174.06,63.30 170.76,71.96 167.61,73.43
             166.39,73.99 164.34,73.99 163.00,73.99
             161.19,73.99 158.96,73.99 157.39,72.98
             154.06,70.83 153.42,64.30 150.36,61.60
             147.88,59.40 142.22,59.99 139.00,60.00
             136.78,60.00 133.30,59.78 131.41,61.02
             128.97,62.64 127.52,68.15 125.65,70.86
             123.67,73.72 122.11,73.97 119.00,75.00
             120.39,67.60 130.51,48.14 134.14,40.00
             135.24,37.52 137.77,29.32 141.65,31.17
             144.02,32.29 146.92,39.49 148.00,42.00
             148.00,42.00 161.00,71.00 161.00,71.00
             165.62,61.20 170.97,53.97 171.00,43.00
             166.61,47.60 162.58,54.24 157.00,57.00
             157.00,57.00 158.56,47.00 158.56,47.00 Z
           M 236.19,54.00
           C 235.69,48.13 237.81,41.60 241.68,37.18
             247.85,30.13 257.09,28.02 266.00,29.81
             268.80,30.37 272.24,31.02 274.07,33.42
             275.28,35.01 275.59,37.10 276.00,39.00
             267.29,35.31 258.94,31.21 250.04,37.13
             237.66,45.37 239.81,64.98 255.00,69.36
             263.51,71.82 268.35,67.43 276.00,66.00
             275.51,72.17 272.69,72.72 267.00,74.10
             254.41,77.16 248.82,72.55 239.00,66.00
             239.00,66.00 236.19,54.00 236.19,54.00 Z
           M 34.00,33.70
           C 46.81,42.35 45.96,64.56 32.00,71.62
             24.78,75.27 11.29,74.00 3.00,74.00
             3.00,74.00 3.00,30.00 3.00,30.00
             12.14,30.00 26.38,28.55 34.00,33.70 Z
           M 43.83,31.02
           C 47.41,33.00 54.24,42.20 56.00,46.00
             56.00,46.00 58.00,46.00 58.00,46.00
             61.61,39.27 67.95,30.65 76.00,30.00
             76.00,30.00 60.85,51.00 60.85,51.00
             60.85,51.00 60.00,74.00 60.00,74.00
             60.00,74.00 55.00,74.00 55.00,74.00
             55.00,68.92 55.75,54.93 53.83,51.00
             50.89,44.99 41.49,37.43 38.00,30.00
             40.07,30.07 41.94,29.97 43.83,31.02 Z
           M 91.58,41.00
           C 91.58,41.00 113.00,66.00 113.00,66.00
             113.00,66.00 113.00,30.00 113.00,30.00
             113.00,30.00 118.00,30.00 118.00,30.00
             118.00,30.00 118.00,74.00 118.00,74.00
             111.00,73.43 109.62,70.01 105.07,65.00
             105.07,65.00 83.00,40.00 83.00,40.00
             83.00,40.00 83.00,74.00 83.00,74.00
             83.00,74.00 77.00,74.00 77.00,74.00
             77.00,74.00 77.00,30.00 77.00,30.00
             84.59,30.61 86.89,35.51 91.58,41.00 Z
           M 232.00,30.00
           C 232.00,30.00 232.00,74.00 232.00,74.00
             232.00,74.00 227.00,74.00 227.00,74.00
             227.00,74.00 225.00,65.00 225.00,65.00
             227.44,61.69 226.99,59.97 227.00,56.00
             227.00,56.00 227.00,30.00 227.00,30.00
             227.00,30.00 232.00,30.00 232.00,30.00 Z
           M 29.00,67.59
           C 39.64,61.72 41.01,44.92 30.96,37.85
             24.45,33.27 15.55,34.00 8.00,34.00
             8.00,34.00 8.00,70.00 8.00,70.00
             14.73,70.00 23.00,70.89 29.00,67.59 Z
           M 133.00,55.00
           C 133.00,55.00 148.00,55.00 148.00,55.00
             148.00,55.00 141.00,38.00 141.00,38.00
             141.00,38.00 133.00,55.00 133.00,55.00 Z
           M 27.02,106.60
           C 28.84,104.30 39.16,104.30 40.98,106.60
             42.40,108.39 42.00,114.59 42.00,117.00
             42.00,118.83 42.12,122.15 41.40,123.78
             39.60,127.85 30.98,128.80 27.00,128.96
             13.17,129.50 -0.06,120.01 1.19,105.00
             2.05,94.53 8.62,86.07 19.00,83.68
             23.99,82.53 36.88,82.76 39.98,87.42
             41.23,89.29 40.99,92.79 41.00,95.00
             36.93,93.28 33.39,91.56 29.00,90.67
             25.20,89.91 22.53,90.24 19.00,91.92
             16.41,93.15 14.35,94.71 12.65,97.04
             7.12,104.62 10.00,115.21 18.00,119.72
             21.93,121.94 30.11,123.14 32.98,118.70
             34.05,117.04 33.93,114.89 34.00,113.00
             34.00,113.00 26.00,113.00 26.00,113.00
             26.02,111.17 25.84,108.09 27.02,106.60 Z
           M 156.31,90.40
           C 153.81,89.18 153.69,85.71 155.41,84.27
             156.82,83.08 159.35,83.66 161.04,83.61
             161.04,83.61 183.28,83.61 183.28,83.61
             185.18,83.54 189.75,83.43 191.01,84.83
             192.19,86.13 191.98,89.32 192.00,91.00
             192.00,91.00 177.00,91.00 177.00,91.00
             177.00,91.00 177.00,128.00 177.00,128.00
             177.00,128.00 169.00,128.00 169.00,128.00
             169.00,128.00 169.00,91.00 169.00,91.00
             166.48,91.00 158.16,91.31 156.31,90.40 Z
           M 245.98,124.58
           C 243.53,128.26 233.15,129.14 229.00,128.96
             216.36,128.41 207.03,118.64 207.03,106.00
             207.03,94.35 214.61,85.61 226.00,83.47
             230.65,82.59 243.10,83.41 245.98,87.51
             247.23,89.30 246.99,92.85 247.00,95.00
             242.33,93.74 237.87,91.43 233.00,91.10
             215.43,89.90 208.73,110.53 223.00,119.15
             230.93,123.93 239.41,119.15 247.00,117.00
             246.99,119.21 247.23,122.71 245.98,124.58 Z
           M 262.00,121.32
           C 265.50,121.28 268.50,118.66 266.92,115.01
             264.09,108.48 245.81,104.19 250.89,91.00
             254.75,80.98 268.74,81.86 272.40,85.70
             274.45,87.85 274.00,92.19 274.00,95.00
             274.00,95.00 268.00,91.92 268.00,91.92
             261.72,89.32 256.98,92.40 258.94,96.16
             262.03,102.09 274.22,104.25 275.63,115.00
             277.55,129.59 257.91,132.10 251.57,125.20
             249.44,122.88 250.00,118.02 250.00,115.00
             253.26,117.17 258.00,121.37 262.00,121.32 Z
           M 74.00,84.00
           C 74.00,84.00 74.00,91.00 74.00,91.00
             74.00,91.00 56.00,91.00 56.00,91.00
             56.00,91.00 56.00,102.00 56.00,102.00
             56.00,102.00 74.00,102.00 74.00,102.00
             74.00,102.00 74.00,109.00 74.00,109.00
             74.00,109.00 56.00,109.00 56.00,109.00
             56.00,109.00 56.00,121.00 56.00,121.00
             56.00,121.00 75.00,121.00 75.00,121.00
             75.00,121.00 75.00,128.00 75.00,128.00
             75.00,128.00 48.00,128.00 48.00,128.00
             48.00,128.00 48.00,84.00 48.00,84.00
             48.00,84.00 74.00,84.00 74.00,84.00 Z
           M 95.42,95.00
           C 95.42,95.00 113.00,115.00 113.00,115.00
             113.00,115.00 113.00,84.00 113.00,84.00
             113.00,84.00 120.00,84.00 120.00,84.00
             120.00,84.00 120.00,128.00 120.00,128.00
             110.54,127.88 109.74,123.93 103.72,117.00
             103.72,117.00 86.00,97.00 86.00,97.00
             86.00,97.00 86.00,128.00 86.00,128.00
             86.00,128.00 79.00,128.00 79.00,128.00
             79.00,128.00 79.00,84.00 79.00,84.00
             88.52,84.12 89.41,87.99 95.42,95.00 Z
           M 153.00,84.00
           C 153.00,84.00 153.00,91.00 153.00,91.00
             153.00,91.00 135.00,91.00 135.00,91.00
             135.00,91.00 135.00,102.00 135.00,102.00
             151.56,102.00 152.71,100.75 153.00,109.00
             153.00,109.00 135.00,109.00 135.00,109.00
             135.00,109.00 135.00,121.00 135.00,121.00
             135.00,121.00 154.00,121.00 154.00,121.00
             154.00,121.00 154.00,128.00 154.00,128.00
             154.00,128.00 127.00,128.00 127.00,128.00
             127.00,128.00 127.00,84.00 127.00,84.00
             127.00,84.00 153.00,84.00 153.00,84.00 Z
           M 202.00,84.00
           C 202.00,84.00 202.00,128.00 202.00,128.00
             202.00,128.00 194.00,128.00 194.00,128.00
             194.00,128.00 194.00,84.00 194.00,84.00
             194.00,84.00 202.00,84.00 202.00,84.00 Z" />
</svg>
